<svg width="92" height="29" viewBox="0 0 92 29" fill="none" xmlns="http://www.w3.org/2000/svg">
<path d="M17.056 22.82C17.6727 22.82 18.1598 22.9927 18.5175 23.338C18.8752 23.671 19.054 24.115 19.054 24.67V28H0.11V26.15C0.11 25.7923 0.184 25.41 0.332 25.003C0.48 24.596 0.739 24.226 1.109 23.893L8.879 16.0675C9.545 15.4015 10.1247 14.7663 10.618 14.162C11.1113 13.5577 11.5183 12.9657 11.839 12.386C12.1597 11.794 12.4002 11.2082 12.5605 10.6285C12.7208 10.0365 12.801 9.41367 12.801 8.76C12.801 7.687 12.542 6.86683 12.024 6.2995C11.5183 5.71983 10.7413 5.43 9.693 5.43C8.842 5.43 8.1205 5.65817 7.5285 6.1145C6.94883 6.5585 6.548 7.1135 6.326 7.7795C6.067 8.45783 5.72783 8.908 5.3085 9.13C4.88917 9.352 4.291 9.40133 3.514 9.278L0.48 8.7415C0.677333 7.39717 1.0535 6.2255 1.6085 5.2265C2.17583 4.2275 2.87267 3.395 3.699 2.729C4.53767 2.063 5.4935 1.56967 6.5665 1.249C7.6395 0.915999 8.79267 0.749499 10.026 0.749499C11.358 0.749499 12.5543 0.946832 13.615 1.3415C14.688 1.72383 15.6007 2.26033 16.353 2.951C17.1053 3.64166 17.6788 4.468 18.0735 5.43C18.4805 6.37967 18.684 7.428 18.684 8.575C18.684 9.56167 18.5422 10.4743 18.2585 11.313C17.9872 12.1517 17.611 12.9533 17.13 13.718C16.649 14.4703 16.0878 15.2042 15.4465 15.9195C14.8175 16.6225 14.1453 17.3378 13.43 18.0655L8.1575 23.4675C8.83583 23.2578 9.508 23.0975 10.174 22.9865C10.84 22.8755 11.4567 22.82 12.024 22.82H17.056Z" fill="#9D3FE7"/>
<path d="M33.4499 24.115C34.3749 24.115 35.1519 24.004 35.7809 23.782C36.4099 23.56 36.9094 23.264 37.2794 22.894C37.6617 22.524 37.9331 22.0923 38.0934 21.599C38.2661 21.1057 38.3524 20.5815 38.3524 20.0265C38.3524 19.4468 38.2599 18.9288 38.0749 18.4725C37.8899 18.0038 37.6001 17.6092 37.2054 17.2885C36.8107 16.9555 36.2989 16.7027 35.6699 16.53C35.0532 16.3573 34.3071 16.271 33.4314 16.271H28.4179V24.115H33.4499ZM28.4179 5.097V12.83H32.3769C34.0789 12.83 35.3616 12.5217 36.2249 11.905C37.1006 11.2883 37.5384 10.3078 37.5384 8.9635C37.5384 7.56983 37.1437 6.577 36.3544 5.985C35.5651 5.393 34.3317 5.097 32.6544 5.097H28.4179ZM32.6544 1.249C34.4057 1.249 35.9042 1.4155 37.1499 1.7485C38.3956 2.0815 39.4131 2.55633 40.2024 3.173C41.0041 3.78967 41.5899 4.53583 41.9599 5.4115C42.3299 6.28717 42.5149 7.27383 42.5149 8.3715C42.5149 9.0005 42.4224 9.60483 42.2374 10.1845C42.0524 10.7518 41.7626 11.2883 41.3679 11.794C40.9856 12.2873 40.4922 12.7375 39.8879 13.1445C39.2959 13.5515 38.5867 13.8968 37.7604 14.1805C41.4357 15.0068 43.2734 16.9925 43.2734 20.1375C43.2734 21.2722 43.0576 22.3205 42.6259 23.2825C42.1942 24.2445 41.5652 25.077 40.7389 25.78C39.9126 26.4707 38.8951 27.0133 37.6864 27.408C36.4777 27.8027 35.0964 28 33.5424 28H23.4414V1.249H32.6544ZM58.5619 23.9855C59.5239 23.9855 60.3811 23.8252 61.1334 23.5045C61.8981 23.1838 62.5394 22.7337 63.0574 22.154C63.5754 21.5743 63.9701 20.8713 64.2414 20.045C64.5251 19.2187 64.6669 18.2937 64.6669 17.27V1.249H69.6434V17.27C69.6434 18.861 69.3844 20.3348 68.8664 21.6915C68.3607 23.0358 67.6269 24.2013 66.6649 25.188C65.7152 26.1623 64.5559 26.927 63.1869 27.482C61.8179 28.0247 60.2762 28.296 58.5619 28.296C56.8352 28.296 55.2874 28.0247 53.9184 27.482C52.5494 26.927 51.3839 26.1623 50.4219 25.188C49.4722 24.2013 48.7384 23.0358 48.2204 21.6915C47.7147 20.3348 47.4619 18.861 47.4619 17.27V1.249H52.4384V17.2515C52.4384 18.2752 52.5741 19.2002 52.8454 20.0265C53.1291 20.8528 53.5299 21.562 54.0479 22.154C54.5782 22.7337 55.2196 23.1838 55.9719 23.5045C56.7366 23.8252 57.5999 23.9855 58.5619 23.9855ZM89.5008 6.1145C89.3528 6.3735 89.1925 6.56467 89.0198 6.688C88.8595 6.799 88.656 6.8545 88.4093 6.8545C88.1503 6.8545 87.8667 6.762 87.5583 6.577C87.2623 6.37967 86.9047 6.16383 86.4853 5.9295C86.066 5.69517 85.5727 5.4855 85.0053 5.3005C84.4503 5.10317 83.7905 5.0045 83.0258 5.0045C82.3352 5.0045 81.7308 5.09083 81.2128 5.2635C80.6948 5.42383 80.257 5.652 79.8993 5.948C79.554 6.244 79.295 6.60167 79.1223 7.021C78.9497 7.428 78.8633 7.87817 78.8633 8.3715C78.8633 9.0005 79.036 9.52467 79.3813 9.944C79.739 10.3633 80.2077 10.721 80.7873 11.017C81.367 11.313 82.0268 11.5782 82.7668 11.8125C83.5068 12.0468 84.2653 12.2997 85.0423 12.571C85.8193 12.83 86.5778 13.1383 87.3178 13.496C88.0578 13.8413 88.7177 14.2853 89.2973 14.828C89.877 15.3583 90.3395 16.012 90.6848 16.789C91.0425 17.566 91.2213 18.5095 91.2213 19.6195C91.2213 20.8282 91.0117 21.9628 90.5923 23.0235C90.1853 24.0718 89.581 24.9907 88.7793 25.78C87.99 26.557 87.0218 27.1737 85.8748 27.63C84.7278 28.074 83.4143 28.296 81.9343 28.296C81.0833 28.296 80.2447 28.2097 79.4183 28.037C78.592 27.8767 77.7965 27.6423 77.0318 27.334C76.2795 27.0257 75.5703 26.6557 74.9043 26.224C74.2383 25.7923 73.6463 25.3113 73.1283 24.781L74.5898 22.3945C74.7132 22.2218 74.8735 22.08 75.0708 21.969C75.2682 21.8457 75.4778 21.784 75.6998 21.784C76.0082 21.784 76.3412 21.9135 76.6988 22.1725C77.0565 22.4192 77.482 22.6967 77.9753 23.005C78.4687 23.3133 79.0422 23.597 79.6958 23.856C80.3618 24.1027 81.1573 24.226 82.0823 24.226C83.5007 24.226 84.5983 23.893 85.3753 23.227C86.1523 22.5487 86.5408 21.5805 86.5408 20.3225C86.5408 19.6195 86.362 19.046 86.0043 18.602C85.659 18.158 85.1965 17.788 84.6168 17.492C84.0372 17.1837 83.3773 16.9247 82.6373 16.715C81.8973 16.5053 81.145 16.2772 80.3803 16.0305C79.6157 15.7838 78.8633 15.4878 78.1233 15.1425C77.3833 14.7972 76.7235 14.347 76.1438 13.792C75.5642 13.237 75.0955 12.5463 74.7378 11.72C74.3925 10.8813 74.2198 9.8515 74.2198 8.6305C74.2198 7.65617 74.411 6.7065 74.7933 5.7815C75.188 4.8565 75.7553 4.03633 76.4953 3.321C77.2353 2.60567 78.148 2.03217 79.2333 1.6005C80.3187 1.16883 81.5643 0.953 82.9703 0.953C84.549 0.953 86.0043 1.19967 87.3363 1.693C88.6683 2.18633 89.803 2.877 90.7403 3.765L89.5008 6.1145Z" fill="black"/>
</svg>
