<svg width="8" height="14" viewBox="0 0 8 14" fill="none" xmlns="http://www.w3.org/2000/svg">
<path d="M0.746816 13.0797C1.07348 13.4064 1.60015 13.4064 1.92682 13.0797L7.53348 7.47302C7.59529 7.41134 7.64432 7.33808 7.67777 7.25744C7.71123 7.17679 7.72845 7.09033 7.72845 7.00302C7.72845 6.91571 7.71123 6.82925 7.67777 6.7486C7.64432 6.66795 7.59529 6.5947 7.53348 6.53302L1.92015 0.919687C1.60015 0.599688 1.06682 0.599688 0.746816 0.919687C0.669211 0.997097 0.607639 1.08906 0.565629 1.1903C0.523618 1.29154 0.501993 1.40008 0.501993 1.50969C0.501993 1.6193 0.523618 1.72783 0.565629 1.82908C0.607639 1.93032 0.669211 2.02228 0.746816 2.09969L5.64015 6.99969L0.74015 11.8997C0.42015 12.2264 0.42015 12.753 0.746816 13.0797Z" fill="#1A141F"/>
</svg>
