<svg width="30" height="30" viewBox="0 0 30 30" fill="none" xmlns="http://www.w3.org/2000/svg">
<path fill-rule="evenodd" clip-rule="evenodd" d="M16.1049 24.4898C16.3637 24.4542 16.6043 24.337 16.7919 24.1553C17.0019 23.9378 17.0019 23.5328 17.0019 23.5328C17.0019 23.5328 16.9719 21.6308 17.8719 21.3518C18.7569 21.0743 19.8819 23.1878 21.0819 24.0008C21.9969 24.6218 22.6869 24.4883 22.6869 24.4883L25.8969 24.4448C25.8969 24.4448 27.5799 24.3398 26.7849 23.0363C26.7249 22.9328 26.3349 22.0733 24.4149 20.3108C22.4019 18.4733 22.6719 18.7703 25.0899 15.5843C26.5599 13.6433 27.1599 12.4583 26.9649 11.9543C26.7999 11.4803 25.7049 11.5973 25.7049 11.5973L22.1034 11.6273C22.1034 11.6273 21.8334 11.5973 21.6384 11.7173C21.4434 11.8343 21.3234 12.1028 21.3234 12.1028C21.3234 12.1028 20.7534 13.6133 19.9884 14.8883C18.3654 17.5823 17.7204 17.7308 17.4654 17.5538C16.8609 17.1668 17.0154 15.9938 17.0154 15.1523C17.0154 12.5438 17.4204 11.4473 16.2354 11.1668C15.8454 11.0768 15.5544 11.0198 14.5494 11.0033C13.2594 10.9883 12.1719 11.0138 11.5554 11.3108C11.1504 11.5103 10.8354 11.9543 11.0154 11.9768C11.2554 12.0068 11.7954 12.1208 12.0804 12.5078C12.4554 13.0073 12.4404 14.1233 12.4404 14.1233C12.4404 14.1233 12.6504 17.1983 11.9454 17.5823C11.4504 17.8403 10.7904 17.3048 9.35043 14.8598C8.61543 13.6148 8.06043 12.2243 8.06043 12.2243C8.06043 12.2243 7.95543 11.9708 7.76043 11.8223C7.53093 11.6603 7.20093 11.6003 7.20093 11.6003L3.76593 11.6303C3.76593 11.6303 3.25594 11.6453 3.07744 11.8673C2.91244 12.0593 3.06243 12.4748 3.06243 12.4748C3.06243 12.4748 5.74743 18.6833 8.79243 21.8093C11.5824 24.6743 14.7489 24.4898 14.7489 24.4898H16.1034H16.1049Z" fill="#787A80"/>
</svg>
